<svg t="1720613829583" class="icon" viewBox="0 0 1024 1024" version="1.1" xmlns="http://www.w3.org/2000/svg" p-id="24707" width="200" height="200">
  <path d="M170.666667 483.555556l-89.6-89.6c-11.377778-11.377778-11.377778-28.444444 0-39.822223l89.6-89.6v-64c-14.222222 4.266667-28.444444 11.377778-38.4 21.333334L41.244444 312.888889c-32.711111 32.711111-32.711111 86.755556 0 120.888889l91.022223 91.022222c11.377778 11.377778 24.177778 18.488889 38.4 21.333333V483.555556zM982.755556 314.311111l-91.022223-91.022222c-9.955556-11.377778-24.177778-18.488889-38.4-22.755556v64l89.6 89.6c11.377778 11.377778 11.377778 28.444444 0 39.822223L853.333333 483.555556v64c14.222222-4.266667 28.444444-11.377778 38.4-22.755556l91.022223-91.022222a82.488889 82.488889 0 0 0 0-119.466667zM483.555556 753.777778h56.888888v85.333333h-56.888888z" fill="rgb(254, 219, 29)" stroke="#2c2c2c" stroke-width="20" p-id="24708"></path>
  <path d="M418.133333 715.377778l52.622223 61.155555c22.755556 25.6 62.577778 25.6 83.911111 0l52.622222-61.155555c29.866667-35.555556 5.688889-89.6-41.244445-89.6h-106.666666c-46.933333 0-71.111111 54.044444-41.244445 89.6z m41.244445-46.933334h105.244444c7.111111 0 11.377778 8.533333 7.111111 14.222223l-52.622222 64c-2.844444 4.266667-9.955556 4.266667-12.8 0L452.266667 682.666667c-4.266667-5.688889 0-14.222222 7.111111-14.222223z" fill="rgb(254, 219, 29)" stroke="#2c2c2c" stroke-width="20" p-id="24709"></path>
  <path d="M156.444444 256v440.888889c0 93.866667 76.8 170.666667 170.666667 170.666667h369.777778c93.866667 0 170.666667-76.8 170.666667-170.666667V256c0-55.466667-44.088889-99.555556-99.555556-99.555556H256c-55.466667 0-99.555556 44.088889-99.555556 99.555556z m540.444445 554.666667H327.111111c-62.577778 0-113.777778-51.2-113.777778-113.777778V256c0-24.177778 18.488889-42.666667 42.666667-42.666667h512c24.177778 0 42.666667 18.488889 42.666667 42.666667v440.888889c0 62.577778-51.2 113.777778-113.777778 113.777778z" fill="rgb(254, 219, 29)" stroke="#2c2c2c" stroke-width="20" p-id="24710"></path>
  <path d="M351.288889 365.511111c-35.555556 0-64 28.444444-64 64s28.444444 64 64 64 64-28.444444 64-64-28.444444-64-64-64z m0 85.333333c-11.377778 0-21.333333-9.955556-21.333333-21.333333s9.955556-21.333333 21.333333-21.333333 21.333333 9.955556 21.333333 21.333333-9.955556 21.333333-21.333333 21.333333zM678.4 365.511111c-35.555556 0-64 28.444444-64 64s28.444444 64 64 64 64-28.444444 64-64-28.444444-64-64-64z m0 85.333333c-11.377778 0-21.333333-9.955556-21.333333-21.333333s9.955556-21.333333 21.333333-21.333333 21.333333 9.955556 21.333333 21.333333-9.955556 21.333333-21.333333 21.333333z" fill="rgb(254, 219, 29)" stroke="#2c2c2c" stroke-width="20" p-id="24711"></path>
</svg>
